<?xml version="1.0" encoding="utf-8"?><svg width='14px' height='14px' xmlns="http://www.w3.org/2000/svg" viewBox="0 0 100 100" preserveAspectRatio="xMidYMid" class="uil-hourglass"><rect x="0" y="0" width="100" height="100" fill="none" class="bk"></rect><g><path fill="none" stroke="#fefefe" stroke-width="5" stroke-miterlimit="10" d="M58.4,51.7c-0.9-0.9-1.4-2-1.4-2.3s0.5-0.4,1.4-1.4 C70.8,43.8,79.8,30.5,80,15.5H70H30H20c0.2,15,9.2,28.1,21.6,32.3c0.9,0.9,1.4,1.2,1.4,1.5s-0.5,1.6-1.4,2.5 C29.2,56.1,20.2,69.5,20,85.5h10h40h10C79.8,69.5,70.8,55.9,58.4,51.7z" class="glass"></path><clipPath id="uil-hourglass-clip1"><rect x="15" y="20" width="70" height="25" class="clip"></rect></clipPath><clipPath id="uil-hourglass-clip2"><rect x="15" y="55" width="70" height="25" class="clip"></rect></clipPath><path d="M29,23c3.1,11.4,11.3,19.5,21,19.5S67.9,34.4,71,23H29z" clip-path="url(#uil-hourglass-clip1)" fill="#aeb7c2" class="sand"></path><path d="M71.6,78c-3-11.6-11.5-20-21.5-20s-18.5,8.4-21.5,20H71.6z" clip-path="url(#uil-hourglass-clip2)" fill="#aeb7c2" class="sand"></path></g></svg>